<svg xmlns="http://www.w3.org/2000/svg" xmlns:xlink="http://www.w3.org/1999/xlink" version="1.2" baseProfile="tiny" x="0px" y="0px" xml:space="preserve" viewBox="2.2 5.28 27.82 19.3"><path fill-rule="evenodd" d="M29.094,14.442c2.218,4.523-0.335,8.836-0.335,8.836s-6.949-1.299-10.507,0.126  c-3.559,1.424-6.113-1.048-9.712-0.88c-3.6,0.168-6.321,2.053-6.321,2.053s1.884-5.529,1.13-9.172  C2.595,11.761,2.47,6.484,2.47,6.484s4.186-1.717,8.582-1.005c4.395,0.712,5.902,2.052,11.763,2.01  c5.86-0.042,6.321-0.042,6.321-0.042S26.875,9.918,29.094,14.442z M10.098,19.544c0.547,0.392,0.469,0.703,0.978,1.173  c0.507,0.469,1.72-0.391,2.188-0.781c0.47-0.392,2.855-0.978,2.855-0.978l-1.173-0.802c-1.192,0.645-2.482,0.703-3.928,0.509  C9.57,18.47,9.551,19.153,10.098,19.544z M12.796,14.932c-0.372-0.704-0.548-1.075-1.017-1.113  c-0.446-0.038-0.567,0.664-0.841,0.683c-0.273,0.021-1.055,0.45-0.938,0.92c0.117,0.468,0.723,0.507,2.58,1.27  s4.397,2.501,5.355,3.048c0.959,0.548,2.562,1.955,2.952,2.325c0.392,0.372,0.977-0.644,0.899-0.84  c-0.079-0.195,1.427-0.43,0.645-0.978c-0.782-0.547-1.661,0.255-4.945-1.993C14.202,16.007,13.167,15.636,12.796,14.932z   M17.174,15.675c-0.489,0.039-1.329,0.215-1.584-0.253c-0.253-0.47,0.04-1.114-0.879-1.76c0,0-0.137,1.134,0.098,1.603  c0.234,0.469,0.566,1.271,1.427,1.271c0.859,0,1.347,0.196,1.7-0.372c0.353-0.566,0.587-1.349,0.587-1.7c0-0.353,0-0.353,0-0.353  s-0.625,0.118-0.646,0.529C17.857,15.049,17.662,15.636,17.174,15.675z M17.486,14.799v-0.194c0-0.057-0.047-0.104-0.104-0.104  s-0.104,0.047-0.104,0.104v0.194c0,0.057,0.047,0.103,0.104,0.103S17.486,14.856,17.486,14.799z M17.036,15.381v0.17  c0,0.05,0.041,0.091,0.092,0.091c0.05,0,0.091-0.041,0.091-0.091v-0.17c0-0.05-0.041-0.091-0.091-0.091  C17.077,15.29,17.036,15.331,17.036,15.381z M17.085,14.775v-0.17c0-0.057-0.047-0.104-0.104-0.104s-0.103,0.047-0.103,0.104v0.17  c0,0.057,0.046,0.103,0.103,0.103S17.085,14.832,17.085,14.775z M16.606,15.277c-0.057,0-0.103,0.047-0.103,0.104v0.17  c0,0.057,0.045,0.103,0.103,0.103c0.058,0,0.103-0.046,0.103-0.103v-0.17C16.709,15.324,16.664,15.277,16.606,15.277z   M16.697,14.647v-0.122c0-0.061-0.048-0.109-0.109-0.109c-0.06,0-0.108,0.049-0.108,0.109v0.122c0,0.06,0.049,0.109,0.108,0.109  C16.648,14.757,16.697,14.707,16.697,14.647z M16.23,14.829c0.063,0,0.115-0.051,0.115-0.114v-0.219  c0-0.064-0.052-0.116-0.115-0.116c-0.064,0-0.116,0.052-0.116,0.116v0.219C16.114,14.777,16.166,14.829,16.23,14.829z   M16.188,15.381v0.194c0,0.031,0.024,0.055,0.055,0.055s0.055-0.024,0.055-0.055v-0.194c0-0.03-0.024-0.055-0.055-0.055  S16.188,15.351,16.188,15.381z M15.871,15.29v0.195c0,0.041,0.033,0.073,0.073,0.073s0.073-0.032,0.073-0.073V15.29  c0-0.04-0.032-0.073-0.073-0.073S15.871,15.25,15.871,15.29z M15.92,14.672v-0.231c0-0.054-0.042-0.097-0.097-0.097  c-0.053,0-0.097,0.043-0.097,0.097v0.231c0,0.053,0.044,0.097,0.097,0.097C15.877,14.769,15.92,14.725,15.92,14.672z M19.676,10.417  c-0.234-1.876-2.038-2.242-2.227-2.242s-1.165-0.189-1.888,0.094c-0.724,0.283-1.541,1.101-1.572,2.107  c-0.032,1.006-0.061,1.291,0.252,1.584c0,0,0.099-0.372,0.118-1.017c0.019-0.645,0.548-1.622,0.684-1.563  c0.138,0.058-0.273,0.645-0.391,1.133c-0.118,0.489-0.078,1.583-0.293,1.642c-0.216,0.059-0.704,0.45-0.098,0.821  c0.605,0.371,1.291,0.801,1.388,1.016c0.098,0.215,0.235,0.292,0.802,0.292c0.568,0,1.016,0.099,1.33-0.097  c0.312-0.195,0.684-0.567,1.173-0.723c0.488-0.156,0.488-0.527,0.156-0.782c-0.333-0.253-0.156-0.82-0.021-1.133l0.021,0.742  C19.109,12.293,19.941,12.544,19.676,10.417z M23.116,16.554c-0.156-0.958-0.782-0.509-0.782-0.509s0.43-1.231-0.723-1.153  c-1.154,0.079-1.477,1.195-3.284,1.935c-1.291,0.528-1.525,0.723-1.525,0.723l1.115,0.684c0,0,1.876-0.722,3.01-0.762  C22.061,17.434,23.272,17.513,23.116,16.554z M17.813,12.656c-0.972-0.271-0.595-1.25-0.595-1.25c0.024-0.291,0.8-0.498,1.177-0.037  C18.771,11.831,18.808,12.936,17.813,12.656z M16.721,13.239c-0.073-0.134-0.278,0.097-0.424,0.024s0.424-1.044,0.424-1.044  l0.061,0.061c0,0,0.012,0.122,0.108,0.692C16.988,13.543,16.794,13.373,16.721,13.239z M15.229,12.426  c-0.74-0.716-0.061-1.531,0.291-1.542C17.097,10.836,15.969,13.142,15.229,12.426z"/></svg>